# Blender 5.2.0 LTS
# www.blender.org
mtllib tags.mtl
o AprilTags
v 0.250000 -0.100000 -0.498000
v 0.250000 0.100000 -0.498000
v 0.050000 -0.100000 -0.498000
v 0.050000 0.100000 -0.498000
v 0.250000 -0.498000 0.100500
v 0.250000 -0.498000 -0.099500
v 0.050000 -0.498000 0.100500
v 0.050000 -0.498000 -0.099500
v 0.250000 0.100000 0.498000
v 0.250000 -0.100000 0.498000
v 0.050000 0.100000 0.498000
v 0.050000 -0.100000 0.498000
v 0.250000 0.498000 -0.100000
v 0.250000 0.498000 0.100000
v 0.050000 0.498000 -0.100000
v 0.050000 0.498000 0.100000
vn -0.0000 -0.0000 1.0000
vn -0.0000 1.0000 -0.0000
vn -0.0000 -0.0000 -1.0000
vn -0.0000 -1.0000 -0.0000
vt 0.046410 0.801241
vt 0.231506 0.801241
vt 0.231506 0.942870
vt 0.046410 0.942870
vt 0.288230 0.801169
vt 0.471618 0.801169
vt 0.471618 0.942854
vt 0.288230 0.942854
vt 0.712698 0.943251
vt 0.527782 0.943180
vt 0.527502 0.800506
vt 0.712418 0.800576
vt 0.768735 0.801217
vt 0.953636 0.801217
vt 0.953636 0.942878
vt 0.768735 0.942878
s 0
usemtl Tag
f 1/1/1 2/2/1 4/3/1 3/4/1
f 5/5/2 6/6/2 8/7/2 7/8/2
f 9/9/3 10/10/3 12/11/3 11/12/3
f 13/13/4 14/14/4 16/15/4 15/16/4
