# Blender 5.2.0 LTS
# www.blender.org
mtllib walls.mtl
o Walls
v 0.000000 -0.525000 -0.525000
v 0.000000 0.525000 -0.525000
v 0.000000 -0.525000 0.525000
v 0.000000 0.525000 0.525000
v 0.000000 -0.498750 0.498750
v 0.000000 -0.498750 -0.498750
v 0.000000 0.498750 -0.498750
v 0.000000 0.498750 0.498750
v 0.300000 -0.525000 0.525000
v 0.300000 -0.525000 -0.525000
v 0.300000 0.525000 -0.525000
v 0.300000 0.525000 0.525000
v 0.300000 -0.525000 0.525000
v 0.300000 -0.525000 -0.525000
v 0.300000 0.525000 -0.525000
v 0.300000 0.525000 0.525000
v 0.300000 -0.498750 0.498750
v 0.300000 -0.498750 -0.498750
v 0.300000 0.498750 -0.498750
v 0.300000 0.498750 0.498750
vn -0.0000 -0.0000 -1.0000
vn -0.0000 1.0000 -0.0000
vn -0.0000 -1.0000 -0.0000
vn -0.0000 -0.0000 1.0000
vn 1.0000 -0.0000 -0.0000
vt 0.000000 0.000000
vt 1.000000 0.000000
vt 1.000000 1.000000
vt 0.000000 1.000000
vt 0.025000 0.025000
vt 0.025000 0.975000
vt 0.975000 0.025000
vt 0.975000 0.975000
s 0
usemtl Base
f 1/1/1 2/2/1 11/2/1 10/1/1
f 2/2/2 4/3/2 12/3/2 11/2/2
f 3/4/3 1/1/3 10/1/3 9/4/3
f 4/3/4 3/4/4 9/4/4 12/3/4
f 14/1/5 13/4/5 9/4/5 10/1/5
f 15/2/5 14/1/5 10/1/5 11/2/5
f 16/3/5 15/2/5 11/2/5 12/3/5
f 13/4/5 16/3/5 12/3/5 9/4/5
f 18/5/5 17/6/5 13/4/5 14/1/5
f 19/7/5 18/5/5 14/1/5 15/2/5
f 20/8/5 19/7/5 15/2/5 16/3/5
f 17/6/5 20/8/5 16/3/5 13/4/5
f 6/5/2 5/6/2 17/6/2 18/5/2
f 7/7/4 6/5/4 18/5/4 19/7/4
f 8/8/3 7/7/3 19/7/3 20/8/3
f 5/6/1 8/8/1 20/8/1 17/6/1
