# Blender 5.2.0 LTS
# www.blender.org
mtllib world.mtl
o world
v 0.250000 -0.100000 -0.498000
v 0.250000 0.100000 -0.498000
v 0.050000 -0.100000 -0.498000
v 0.050000 0.100000 -0.498000
v -0.000000 -0.525000 -0.525000
v -0.000000 0.525000 -0.525000
v 0.000000 -0.525000 0.525000
v 0.000000 0.525000 0.525000
v 0.000000 -0.498750 0.498750
v -0.000000 -0.498750 -0.498750
v -0.000000 0.498750 -0.498750
v 0.000000 0.498750 0.498750
v 0.300000 -0.525000 0.525000
v 0.300000 -0.525000 -0.525000
v 0.300000 0.525000 -0.525000
v 0.300000 0.525000 0.525000
v 0.300000 -0.525000 0.525000
v 0.300000 -0.525000 -0.525000
v 0.300000 0.525000 -0.525000
v 0.300000 0.525000 0.525000
v 0.300000 -0.498750 0.498750
v 0.300000 -0.498750 -0.498750
v 0.300000 0.498750 -0.498750
v 0.300000 0.498750 0.498750
v 0.250000 -0.498000 0.100500
v 0.250000 -0.498000 -0.099500
v 0.050000 -0.498000 0.100500
v 0.050000 -0.498000 -0.099500
v 0.250000 0.100000 0.498000
v 0.250000 -0.100000 0.498000
v 0.050000 0.100000 0.498000
v 0.050000 -0.100000 0.498000
v 0.250000 0.498000 -0.100000
v 0.250000 0.498000 0.100000
v 0.050000 0.498000 -0.100000
v 0.050000 0.498000 0.100000
vn -0.0000 -0.0000 1.0000
vn 1.0000 -0.0000 -0.0000
vn -0.0000 -0.0000 -1.0000
vn -0.0000 1.0000 -0.0000
vn -0.0000 -1.0000 -0.0000
vt 0.046410 0.801241
vt 0.231506 0.801241
vt 0.231506 0.942870
vt 0.046410 0.942870
vt 0.025000 0.025000
vt 0.975000 0.025000
vt 0.975000 0.975000
vt 0.025000 0.975000
vt 0.000000 0.000000
vt 1.000000 0.000000
vt 1.000000 1.000000
vt 0.000000 1.000000
vt 0.288230 0.801169
vt 0.471618 0.801169
vt 0.471618 0.942854
vt 0.288230 0.942854
vt 0.712698 0.943251
vt 0.527782 0.943180
vt 0.527502 0.800506
vt 0.712418 0.800576
vt 0.768735 0.801217
vt 0.953636 0.801217
vt 0.953636 0.942878
vt 0.768735 0.942878
s 0
usemtl Tag
f 1/1/1 2/2/1 4/3/1 3/4/1
f 25/13/4 26/14/4 28/15/4 27/16/4
f 29/17/3 30/18/3 32/19/3 31/20/3
f 33/21/5 34/22/5 36/23/5 35/24/5
usemtl Base
f 5/9/3 6/10/3 15/10/3 14/9/3
f 6/10/4 8/11/4 16/11/4 15/10/4
f 7/12/5 5/9/5 14/9/5 13/12/5
f 8/11/1 7/12/1 13/12/1 16/11/1
f 18/9/2 17/12/2 13/12/2 14/9/2
f 19/10/2 18/9/2 14/9/2 15/10/2
f 20/11/2 19/10/2 15/10/2 16/11/2
f 17/12/2 20/11/2 16/11/2 13/12/2
f 22/5/2 21/8/2 17/12/2 18/9/2
f 23/6/2 22/5/2 18/9/2 19/10/2
f 24/7/2 23/6/2 19/10/2 20/11/2
f 21/8/2 24/7/2 20/11/2 17/12/2
f 10/5/4 9/8/4 21/8/4 22/5/4
f 11/6/1 10/5/1 22/5/1 23/6/1
f 12/7/5 11/6/5 23/6/5 24/7/5
f 9/8/3 12/7/3 24/7/3 21/8/3
usemtl Bottom
f 10/5/2 11/6/2 12/7/2 9/8/2
